<svg width="24" height="24" viewBox="0 0 24 24" fill="none" xmlns="http://www.w3.org/2000/svg">
<path fill-rule="evenodd" clip-rule="evenodd" d="M11.4697 10.7243C11.7626 10.4314 12.2374 10.4314 12.5303 10.7243L20.0303 18.2243C20.3232 18.5172 20.3232 18.9921 20.0303 19.285C19.7374 19.5779 19.2626 19.5779 18.9697 19.285L12 12.3153L5.03033 19.285C4.73744 19.5779 4.26256 19.5779 3.96967 19.285C3.67678 18.9921 3.67678 18.5172 3.96967 18.2243L11.4697 10.7243Z" fill="#0F172A"/>
<path fill-rule="evenodd" clip-rule="evenodd" d="M11.4697 4.72431C11.7626 4.43142 12.2374 4.43142 12.5303 4.72431L20.0303 12.2243C20.3232 12.5172 20.3232 12.9921 20.0303 13.285C19.7374 13.5779 19.2626 13.5779 18.9697 13.285L12 6.3153L5.03033 13.285C4.73744 13.5779 4.26256 13.5779 3.96967 13.285C3.67678 12.9921 3.67678 12.5172 3.96967 12.2243L11.4697 4.72431Z" fill="#0F172A"/>
</svg>
